<mxfile host="app.diagrams.net" modified="2021-10-08T02:24:29.917Z" agent="5.0 (Windows NT 10.0; Win64; x64) AppleWebKit/537.36 (KHTML, like Gecko) Chrome/94.0.4606.71 Safari/537.36" etag="kwMI6srYIzVQdQ6yXQPZ" version="15.3.7" type="github">
  <diagram id="9tSZtnjZxx4LrCQKBvWd" name="Page-1">
    <mxGraphModel dx="1396" dy="1050" grid="1" gridSize="10" guides="1" tooltips="1" connect="1" arrows="1" fold="1" page="1" pageScale="1" pageWidth="850" pageHeight="1100" math="0" shadow="0">
      <root>
        <mxCell id="0" />
        <mxCell id="1" parent="0" />
        <mxCell id="_zKKCHz1LGMy665NGvHr-4" style="edgeStyle=orthogonalEdgeStyle;rounded=0;orthogonalLoop=1;jettySize=auto;html=1;entryX=0;entryY=0.5;entryDx=0;entryDy=0;" edge="1" parent="1" source="_zKKCHz1LGMy665NGvHr-2" target="_zKKCHz1LGMy665NGvHr-3">
          <mxGeometry relative="1" as="geometry" />
        </mxCell>
        <mxCell id="_zKKCHz1LGMy665NGvHr-2" value="GTC file" style="shape=parallelogram;perimeter=parallelogramPerimeter;whiteSpace=wrap;html=1;fixedSize=1;" vertex="1" parent="1">
          <mxGeometry x="70" y="320" width="120" height="60" as="geometry" />
        </mxCell>
        <mxCell id="_zKKCHz1LGMy665NGvHr-7" style="edgeStyle=orthogonalEdgeStyle;rounded=0;orthogonalLoop=1;jettySize=auto;html=1;entryX=0;entryY=0.5;entryDx=0;entryDy=0;" edge="1" parent="1" source="_zKKCHz1LGMy665NGvHr-3" target="_zKKCHz1LGMy665NGvHr-6">
          <mxGeometry relative="1" as="geometry" />
        </mxCell>
        <mxCell id="_zKKCHz1LGMy665NGvHr-3" value="Inbox" style="shape=process;whiteSpace=wrap;html=1;backgroundOutline=1;" vertex="1" parent="1">
          <mxGeometry x="220" y="320" width="120" height="60" as="geometry" />
        </mxCell>
        <mxCell id="_zKKCHz1LGMy665NGvHr-11" style="edgeStyle=orthogonalEdgeStyle;rounded=0;orthogonalLoop=1;jettySize=auto;html=1;" edge="1" parent="1" source="_zKKCHz1LGMy665NGvHr-6" target="_zKKCHz1LGMy665NGvHr-8">
          <mxGeometry relative="1" as="geometry" />
        </mxCell>
        <mxCell id="_zKKCHz1LGMy665NGvHr-12" style="edgeStyle=orthogonalEdgeStyle;rounded=0;orthogonalLoop=1;jettySize=auto;html=1;entryX=0;entryY=0.5;entryDx=0;entryDy=0;" edge="1" parent="1" source="_zKKCHz1LGMy665NGvHr-6" target="_zKKCHz1LGMy665NGvHr-10">
          <mxGeometry relative="1" as="geometry" />
        </mxCell>
        <mxCell id="_zKKCHz1LGMy665NGvHr-6" value="Process" style="shape=process;whiteSpace=wrap;html=1;backgroundOutline=1;" vertex="1" parent="1">
          <mxGeometry x="390" y="320" width="120" height="60" as="geometry" />
        </mxCell>
        <mxCell id="_zKKCHz1LGMy665NGvHr-17" style="edgeStyle=orthogonalEdgeStyle;rounded=0;orthogonalLoop=1;jettySize=auto;html=1;entryX=0.5;entryY=1;entryDx=0;entryDy=0;" edge="1" parent="1" source="_zKKCHz1LGMy665NGvHr-8" target="_zKKCHz1LGMy665NGvHr-16">
          <mxGeometry relative="1" as="geometry" />
        </mxCell>
        <mxCell id="_zKKCHz1LGMy665NGvHr-8" value="Arc" style="shape=process;whiteSpace=wrap;html=1;backgroundOutline=1;" vertex="1" parent="1">
          <mxGeometry x="570" y="280" width="120" height="60" as="geometry" />
        </mxCell>
        <mxCell id="_zKKCHz1LGMy665NGvHr-9" value="Error" style="shape=process;whiteSpace=wrap;html=1;backgroundOutline=1;" vertex="1" parent="1">
          <mxGeometry x="570" y="500" width="120" height="60" as="geometry" />
        </mxCell>
        <mxCell id="_zKKCHz1LGMy665NGvHr-15" style="edgeStyle=orthogonalEdgeStyle;rounded=0;orthogonalLoop=1;jettySize=auto;html=1;entryX=0.5;entryY=0;entryDx=0;entryDy=0;" edge="1" parent="1" source="_zKKCHz1LGMy665NGvHr-10" target="_zKKCHz1LGMy665NGvHr-9">
          <mxGeometry relative="1" as="geometry" />
        </mxCell>
        <mxCell id="_zKKCHz1LGMy665NGvHr-18" style="edgeStyle=orthogonalEdgeStyle;rounded=0;orthogonalLoop=1;jettySize=auto;html=1;entryX=0.5;entryY=1;entryDx=0;entryDy=0;" edge="1" parent="1" source="_zKKCHz1LGMy665NGvHr-10" target="_zKKCHz1LGMy665NGvHr-8">
          <mxGeometry relative="1" as="geometry" />
        </mxCell>
        <mxCell id="_zKKCHz1LGMy665NGvHr-10" value="Retry" style="shape=process;whiteSpace=wrap;html=1;backgroundOutline=1;" vertex="1" parent="1">
          <mxGeometry x="570" y="390" width="120" height="60" as="geometry" />
        </mxCell>
        <mxCell id="_zKKCHz1LGMy665NGvHr-16" value="QC File" style="shape=parallelogram;perimeter=parallelogramPerimeter;whiteSpace=wrap;html=1;fixedSize=1;" vertex="1" parent="1">
          <mxGeometry x="570" y="160" width="120" height="60" as="geometry" />
        </mxCell>
        <mxCell id="_zKKCHz1LGMy665NGvHr-20" style="edgeStyle=orthogonalEdgeStyle;rounded=0;orthogonalLoop=1;jettySize=auto;html=1;exitX=0.75;exitY=1;exitDx=0;exitDy=0;entryX=1;entryY=0.5;entryDx=0;entryDy=0;" edge="1" parent="1" source="_zKKCHz1LGMy665NGvHr-10" target="_zKKCHz1LGMy665NGvHr-10">
          <mxGeometry relative="1" as="geometry" />
        </mxCell>
        <mxCell id="_zKKCHz1LGMy665NGvHr-21" value="Max: 3" style="edgeLabel;html=1;align=center;verticalAlign=middle;resizable=0;points=[];" vertex="1" connectable="0" parent="_zKKCHz1LGMy665NGvHr-20">
          <mxGeometry x="-0.1823" y="-1" relative="1" as="geometry">
            <mxPoint as="offset" />
          </mxGeometry>
        </mxCell>
      </root>
    </mxGraphModel>
  </diagram>
</mxfile>
